<svg width="1200" height="750" viewBox="0 0 1200 750" xmlns="http://www.w3.org/2000/svg">
<defs>
<style>
.disp { font-family:'Anton','Archivo Black','Arial Narrow',sans-serif; font-weight:900; }
</style>
<linearGradient id="bg" x1="0" y1="0" x2="1" y2="1">
  <stop offset="0" stop-color="#080B20"/>
  <stop offset="0.48" stop-color="#141A3C"/>
  <stop offset="1" stop-color="#22124C"/>
</linearGradient>
<radialGradient id="glow" cx="0.5" cy="0.52" r="0.5">
  <stop offset="0" stop-color="#5865F2" stop-opacity="0.55"/>
  <stop offset="0.55" stop-color="#5865F2" stop-opacity="0.14"/>
  <stop offset="1" stop-color="#5865F2" stop-opacity="0"/>
</radialGradient>
<radialGradient id="vig" cx="0.5" cy="0.42" r="0.75">
  <stop offset="0.55" stop-color="#000000" stop-opacity="0"/>
  <stop offset="1" stop-color="#03040F" stop-opacity="0.55"/>
</radialGradient>
<linearGradient id="dbody" x1="0" y1="0" x2="0" y2="1">
  <stop offset="0" stop-color="#AEB6FF"/>
  <stop offset="0.5" stop-color="#5D6BF5"/>
  <stop offset="1" stop-color="#3E48D6"/>
</linearGradient>
<linearGradient id="dword" x1="0" y1="0" x2="0" y2="1">
  <stop offset="0" stop-color="#8F9BFF"/>
  <stop offset="1" stop-color="#5865F2"/>
</linearGradient>
<linearGradient id="previx" x1="0" y1="0" x2="1" y2="0">
  <stop offset="0" stop-color="#2FD8FF"/>
  <stop offset="1" stop-color="#27E39A"/>
</linearGradient>
<linearGradient id="chart" x1="0" y1="0" x2="0" y2="1">
  <stop offset="0" stop-color="#2FE39B" stop-opacity="0.20"/>
  <stop offset="1" stop-color="#2FE39B" stop-opacity="0"/>
</linearGradient>
<linearGradient id="streak" x1="0" y1="0" x2="0" y2="1">
  <stop offset="0" stop-color="#8B95FF" stop-opacity="0"/>
  <stop offset="0.5" stop-color="#8B95FF" stop-opacity="1"/>
  <stop offset="1" stop-color="#8B95FF" stop-opacity="0"/>
</linearGradient>
<linearGradient id="divider" x1="0" y1="0" x2="1" y2="0">
  <stop offset="0" stop-color="#5865F2" stop-opacity="0"/>
  <stop offset="0.5" stop-color="#8E97FF" stop-opacity="0.9"/>
  <stop offset="1" stop-color="#5865F2" stop-opacity="0"/>
</linearGradient>
<linearGradient id="edge" x1="0" y1="0" x2="0" y2="1">
  <stop offset="0" stop-color="#7C88FF" stop-opacity="0.9"/>
  <stop offset="0.5" stop-color="#5865F2" stop-opacity="0.25"/>
  <stop offset="1" stop-color="#2FE39B" stop-opacity="0.35"/>
</linearGradient>
<pattern id="dots" width="22" height="22" patternUnits="userSpaceOnUse">
  <circle cx="2" cy="2" r="1.6" fill="#8B95FF"/>
</pattern>
<radialGradient id="dotfadeTR" cx="1" cy="0" r="1">
  <stop offset="0" stop-color="#fff" stop-opacity="1"/><stop offset="0.6" stop-color="#fff" stop-opacity="0"/>
</radialGradient>
<radialGradient id="dotfadeBL" cx="0" cy="1" r="1">
  <stop offset="0" stop-color="#fff" stop-opacity="1"/><stop offset="0.6" stop-color="#fff" stop-opacity="0"/>
</radialGradient>
<mask id="mTR"><rect width="1200" height="750" fill="url(#dotfadeTR)"/></mask>
<mask id="mBL"><rect width="1200" height="750" fill="url(#dotfadeBL)"/></mask>
<clipPath id="card"><rect x="6" y="6" width="1188" height="738" rx="34"/></clipPath>
<filter id="logoGlow" x="-60%" y="-60%" width="220%" height="220%">
  <feGaussianBlur stdDeviation="14" result="b"/><feMerge><feMergeNode in="b"/></feMerge>
</filter>
<filter id="softShadow" x="-40%" y="-40%" width="180%" height="180%">
  <feDropShadow dx="0" dy="10" stdDeviation="14" flood-color="#05061a" flood-opacity="0.55"/>
</filter>
<filter id="txtGlow" x="-30%" y="-40%" width="160%" height="200%">
  <feDropShadow dx="0" dy="0" stdDeviation="10" flood-color="#5865F2" flood-opacity="0.55"/>
</filter>
</defs>

<g clip-path="url(#card)">
  <rect x="6" y="6" width="1188" height="738" fill="url(#bg)"/>
  <g opacity="0.9"><rect x="140" y="-120" width="60" height="1000" fill="url(#streak)" opacity="0.05" transform="skewX(-16)"/><rect x="360" y="-120" width="90" height="1000" fill="url(#streak)" opacity="0.07" transform="skewX(-16)"/><rect x="760" y="-120" width="70" height="1000" fill="url(#streak)" opacity="0.05" transform="skewX(-16)"/><rect x="980" y="-120" width="80" height="1000" fill="url(#streak)" opacity="0.06" transform="skewX(-16)"/></g>
  <rect x="900" y="0" width="300" height="230" fill="url(#dots)" opacity="0.16" mask="url(#mTR)"/>
  <rect x="0" y="520" width="320" height="230" fill="url(#dots)" opacity="0.14" mask="url(#mBL)"/>
  <path d="M0,750 L0,562.8 L0.0,562.8 L27.9,563.2 L55.8,562.1 L83.7,562.2 L111.6,561.2 L139.5,561.4 L167.4,563.8 L195.3,565.4 L223.3,567.6 L251.2,570.0 L279.1,574.5 L307.0,578.9 L334.9,576.2 L362.8,570.7 L390.7,571.1 L418.6,572.1 L446.5,565.1 L474.4,553.8 L502.3,546.3 L530.2,539.9 L558.1,533.1 L586.0,529.4 L614.0,524.8 L641.9,523.4 L669.8,527.6 L697.7,532.0 L725.6,530.7 L753.5,525.7 L781.4,523.1 L809.3,519.0 L837.2,513.3 L865.1,509.5 L893.0,508.4 L920.9,512.4 L948.8,518.7 L976.7,520.0 L1004.7,515.8 L1032.6,512.6 L1060.5,510.7 L1088.4,506.9 L1116.3,504.1 L1144.2,500.9 L1172.1,492.9 L1200.0,485.2 L1200,750 Z" fill="url(#chart)"/>
  <polyline points="0.0,562.8 27.9,563.2 55.8,562.1 83.7,562.2 111.6,561.2 139.5,561.4 167.4,563.8 195.3,565.4 223.3,567.6 251.2,570.0 279.1,574.5 307.0,578.9 334.9,576.2 362.8,570.7 390.7,571.1 418.6,572.1 446.5,565.1 474.4,553.8 502.3,546.3 530.2,539.9 558.1,533.1 586.0,529.4 614.0,524.8 641.9,523.4 669.8,527.6 697.7,532.0 725.6,530.7 753.5,525.7 781.4,523.1 809.3,519.0 837.2,513.3 865.1,509.5 893.0,508.4 920.9,512.4 948.8,518.7 976.7,520.0 1004.7,515.8 1032.6,512.6 1060.5,510.7 1088.4,506.9 1116.3,504.1 1144.2,500.9 1172.1,492.9 1200.0,485.2" fill="none" stroke="#3BE7A6" stroke-width="2.5" opacity="0.28" stroke-linejoin="round"/>
  <rect x="6" y="6" width="1188" height="738" fill="url(#vig)"/>
  <ellipse cx="600" cy="406" rx="440" ry="300" fill="url(#glow)"/>

  <!-- Discord logo -->
  <g transform="translate(450.0,253.5) scale(12.5)">
    <path d="M20.317 4.3698a19.7913 19.7913 0 00-4.8851-1.5152.0741.0741 0 00-.0785.0371c-.211.3753-.4447.8648-.6083 1.2495-1.8447-.2762-3.68-.2762-5.4868 0-.1636-.3933-.4058-.8742-.6177-1.2495a.077.077 0 00-.0785-.037 19.7363 19.7363 0 00-4.8852 1.515.0699.0699 0 00-.0321.0277C.5334 9.0458-.319 13.5799.0992 18.0578a.0824.0824 0 00.0312.0561c2.0528 1.5076 4.0413 2.4228 5.9929 3.0294a.0777.0777 0 00.0842-.0276c.4616-.6304.8731-1.2952 1.226-1.9942a.076.076 0 00-.0416-.1057c-.6528-.2476-1.2743-.5495-1.8722-.8923a.077.077 0 01-.0076-.1277c.1258-.0943.2517-.1923.3718-.2914a.0743.0743 0 01.0776-.0105c3.9278 1.7933 8.18 1.7933 12.0614 0a.0739.0739 0 01.0785.0095c.1202.099.246.1981.3728.2924a.077.077 0 01-.0066.1276 12.2986 12.2986 0 01-1.873.8914.0766.0766 0 00-.0407.1067c.3604.698.7719 1.3628 1.225 1.9932a.076.076 0 00.0842.0286c1.961-.6067 3.9495-1.5219 6.0023-3.0294a.077.077 0 00.0313-.0552c.5004-5.177-.8382-9.6739-3.5485-13.6604a.061.061 0 00-.0312-.0286zM8.02 15.3312c-1.1825 0-2.1569-1.0857-2.1569-2.419 0-1.3332.9555-2.4189 2.157-2.4189 1.2108 0 2.1757 1.0952 2.1568 2.419 0 1.3332-.9555 2.4189-2.1569 2.4189zm7.9748 0c-1.1825 0-2.1569-1.0857-2.1569-2.419 0-1.3332.9554-2.4189 2.1569-2.4189 1.2107 0 2.1757 1.0952 2.1568 2.419 0 1.3332-.9461 2.4189-2.1568 2.4189Z" fill="#5865F2" filter="url(#logoGlow)" opacity="0.9"/>
  </g>
  <g transform="translate(450.0,253.5) scale(12.5)" filter="url(#softShadow)">
    <path d="M20.317 4.3698a19.7913 19.7913 0 00-4.8851-1.5152.0741.0741 0 00-.0785.0371c-.211.3753-.4447.8648-.6083 1.2495-1.8447-.2762-3.68-.2762-5.4868 0-.1636-.3933-.4058-.8742-.6177-1.2495a.077.077 0 00-.0785-.037 19.7363 19.7363 0 00-4.8852 1.515.0699.0699 0 00-.0321.0277C.5334 9.0458-.319 13.5799.0992 18.0578a.0824.0824 0 00.0312.0561c2.0528 1.5076 4.0413 2.4228 5.9929 3.0294a.0777.0777 0 00.0842-.0276c.4616-.6304.8731-1.2952 1.226-1.9942a.076.076 0 00-.0416-.1057c-.6528-.2476-1.2743-.5495-1.8722-.8923a.077.077 0 01-.0076-.1277c.1258-.0943.2517-.1923.3718-.2914a.0743.0743 0 01.0776-.0105c3.9278 1.7933 8.18 1.7933 12.0614 0a.0739.0739 0 01.0785.0095c.1202.099.246.1981.3728.2924a.077.077 0 01-.0066.1276 12.2986 12.2986 0 01-1.873.8914.0766.0766 0 00-.0407.1067c.3604.698.7719 1.3628 1.225 1.9932a.076.076 0 00.0842.0286c1.961-.6067 3.9495-1.5219 6.0023-3.0294a.077.077 0 00.0313-.0552c.5004-5.177-.8382-9.6739-3.5485-13.6604a.061.061 0 00-.0312-.0286zM8.02 15.3312c-1.1825 0-2.1569-1.0857-2.1569-2.419 0-1.3332.9555-2.4189 2.157-2.4189 1.2108 0 2.1757 1.0952 2.1568 2.419 0 1.3332-.9555 2.4189-2.1569 2.4189zm7.9748 0c-1.1825 0-2.1569-1.0857-2.1569-2.419 0-1.3332.9554-2.4189 2.1569-2.4189 1.2107 0 2.1757 1.0952 2.1568 2.419 0 1.3332-.9461 2.4189-2.1568 2.4189Z" fill="url(#dbody)"/>
  </g>

  <!-- Top text -->
  <text x="600" y="112" text-anchor="middle" class="disp" font-size="37"
        letter-spacing="9" fill="#9AA4EC">PARTICIPE DE NOSSO SERVIDOR</text>
  <text x="600" y="212" text-anchor="middle" class="disp" font-size="90" letter-spacing="2">
    <tspan fill="#EDEFFF">NO </tspan><tspan fill="url(#dword)" filter="url(#txtGlow)">DISCORD</tspan>
  </text>

  <!-- Divider + status -->
  <rect x="410" y="600" width="380" height="2" fill="url(#divider)"/>
  <circle cx="452" cy="646" r="6" fill="#2FE39B"/>
  <circle cx="452" cy="646" r="6" fill="#2FE39B" opacity="0.35"/>

  <!-- Bottom URL -->
  <text x="600" y="672" text-anchor="middle" class="disp" font-size="55" letter-spacing="2">
    <tspan fill="#C9D0FF">DISCORD.GG/</tspan><tspan fill="url(#previx)">PREVIX</tspan><tspan fill="#FFFFFF">LANCE</tspan>
  </text>
</g>

<rect x="6" y="6" width="1188" height="738" rx="34" fill="none" stroke="url(#edge)" stroke-width="2.2"/>
<rect x="9" y="9" width="1182" height="732" rx="31" fill="none" stroke="#ffffff" stroke-opacity="0.05" stroke-width="1"/>
</svg>
