<svg xmlns="http://www.w3.org/2000/svg" viewBox="0 0 400 170" width="400" height="170" role="img" aria-label="Comunidade PrevixLance no Discord">
  <defs>
    <linearGradient id="bg" x1="0" y1="0" x2="1" y2="1">
      <stop offset="0" stop-color="#5865F2"/>
      <stop offset="1" stop-color="#404EED"/>
    </linearGradient>
  </defs>
  <rect width="400" height="170" fill="url(#bg)"/>
  <g fill="#ffffff" opacity="0.12">
    <circle cx="340" cy="30" r="70"/>
    <circle cx="60" cy="150" r="50"/>
  </g>
  <g transform="translate(28,44)" fill="#ffffff">
    <path d="M40.6 4.1A50 50 0 0 0 28.2 0.3a0.2 0.2 0 0 0-0.2 0.1c-0.5 1-1.1 2.2-1.5 3.2a46 46 0 0 0-13.9 0C12.1 2.5 11.5 1.3 11 0.4a0.2 0.2 0 0 0-0.2-0.1A50 50 0 0 0-1.6 4.1a0.2 0.2 0 0 0-0.1 0.1C-6.5 15.9-7.8 27.4-7.2 38.7a0.2 0.2 0 0 0 0.1 0.1a50 50 0 0 0 15.2 7.7a0.2 0.2 0 0 0 0.2-0.1c1.2-1.6 2.2-3.3 3.1-5.1a0.2 0.2 0 0 0-0.1-0.3a33 33 0 0 1-4.7-2.3a0.2 0.2 0 0 1 0-0.3c0.3-0.2 0.6-0.5 0.9-0.7a0.2 0.2 0 0 1 0.2 0c10 4.6 20.7 4.6 30.6 0a0.2 0.2 0 0 1 0.2 0c0.3 0.3 0.6 0.5 0.9 0.7a0.2 0.2 0 0 1 0 0.3a31 31 0 0 1-4.7 2.3a0.2 0.2 0 0 0-0.1 0.3c0.9 1.8 2 3.5 3.1 5.1a0.2 0.2 0 0 0 0.2 0.1a50 50 0 0 0 15.2-7.7a0.2 0.2 0 0 0 0.1-0.1c0.7-13.1-2.1-24.5-9-34.5a0.2 0.2 0 0 0-0.1-0.1zM13.5 31.9c-3 0-5.5-2.7-5.5-6.1s2.4-6.1 5.5-6.1c3.1 0 5.6 2.8 5.5 6.1c0 3.4-2.4 6.1-5.5 6.1zm20.3 0c-3 0-5.5-2.7-5.5-6.1s2.4-6.1 5.5-6.1c3.1 0 5.6 2.8 5.5 6.1c0 3.4-2.4 6.1-5.5 6.1z"/>
  </g>
  <text x="28" y="118" fill="#ffffff" font-family="system-ui, Arial, sans-serif" font-size="22" font-weight="800">Comunidade PrevixLance</text>
  <text x="28" y="142" fill="#ffffff" opacity="0.85" font-family="system-ui, Arial, sans-serif" font-size="14" font-weight="500">Entre no nosso servidor do Discord</text>
</svg>
