<svg width="1200" height="620" viewBox="0 0 1200 620" xmlns="http://www.w3.org/2000/svg">
<defs>
<style>.d{font-family:system-ui,'Segoe UI',Arial,sans-serif}</style>
<linearGradient id="pbg" x1="0" y1="0" x2="1" y2="1">
  <stop offset="0" stop-color="#0b3b2a"/>
  <stop offset="0.55" stop-color="#0f5138"/>
  <stop offset="1" stop-color="#127a4f"/>
</linearGradient>
<radialGradient id="pglow" cx="0.3" cy="0.25" r="0.8">
  <stop offset="0" stop-color="#2FE39B" stop-opacity="0.35"/>
  <stop offset="1" stop-color="#2FE39B" stop-opacity="0"/>
</radialGradient>
<clipPath id="pcard"><rect x="4" y="4" width="1192" height="612" rx="26"/></clipPath>
</defs>
<g clip-path="url(#pcard)">
  <rect x="4" y="4" width="1192" height="612" fill="url(#pbg)"/>
  <rect x="4" y="4" width="1192" height="612" fill="url(#pglow)"/>
  <circle cx="1050" cy="120" r="220" fill="#ffffff" opacity="0.05"/>
  <!-- lightbulb chip -->
  <rect x="70" y="70" width="96" height="96" rx="24" fill="rgba(255,255,255,0.14)"/>
  <g transform="translate(96,92)" fill="none" stroke="#fff" stroke-width="4.2" stroke-linecap="round" stroke-linejoin="round">
    <path d="M8 44h28M13 54h18M22 2a30 30 0 0 0-17 54c2.6 2.1 4 5 4 8.3V66h26v-1.7c0-3.3 1.4-6.2 4-8.3A30 30 0 0 0 22 2z"/>
  </g>
  <text x="70" y="250" class="d" font-size="64" font-weight="800" fill="#ffffff">Proponha um mercado</text>
  <text x="70" y="312" class="d" font-size="30" font-weight="500" fill="rgba(255,255,255,0.85)">Tem uma boa ideia de aposta? Sugira um mercado —</text>
  <text x="70" y="352" class="d" font-size="30" font-weight="500" fill="rgba(255,255,255,0.85)">se for aprovado pela equipe, você ganha saldo.</text>
  <!-- reward badge -->
  <rect x="70" y="410" width="640" height="72" rx="36" fill="rgba(255,255,255,0.16)"/>
  <text x="112" y="456" class="d" font-size="30" font-weight="800" fill="#ffffff">$</text>
  <text x="150" y="456" class="d" font-size="30" font-weight="800" fill="#ffffff">Ganhe R$0,50 por mercado aprovado</text>
</g>
<rect x="4" y="4" width="1192" height="612" rx="26" fill="none" stroke="rgba(255,255,255,0.10)" stroke-width="2"/>
</svg>
